<svg width="31" height="47" viewBox="0 0 31 47" fill="none" xmlns="http://www.w3.org/2000/svg">
<path d="M15.5 47L28.5 21.5L15.5 26.5L2.5 22L15.5 47Z" fill="#E8E8F6"/>
<path fill-rule="evenodd" clip-rule="evenodd" d="M15.3721 29.3258C23.5664 29.3258 30.2092 22.761 30.2092 14.6629C30.2092 6.56481 23.5664 0 15.3721 0C7.17771 0 0.534882 6.56481 0.534882 14.6629C0.534882 22.761 7.17771 29.3258 15.3721 29.3258ZM15.5 25.5337C21.6457 25.5337 26.6278 20.6101 26.6278 14.5365C26.6278 8.46295 21.6457 3.53934 15.5 3.53934C9.35419 3.53934 4.37207 8.46295 4.37207 14.5365C4.37207 20.6101 9.35419 25.5337 15.5 25.5337Z" fill="#E8E8F6"/>
</svg>
