<svg width="51" height="55" viewBox="0 0 51 55" fill="none" xmlns="http://www.w3.org/2000/svg">
<path d="M27.5516 35.8646C26.6441 34.4784 27.029 32.6142 28.4114 31.7009L28.5875 31.5845C29.9699 30.6712 31.8262 31.0545 32.7337 32.4407L38.9192 41.8889C39.8267 43.2751 39.4418 45.1392 38.0594 46.0526L37.8833 46.1689C36.5009 47.0823 34.6446 46.6989 33.7371 45.3127L27.5516 35.8646Z" fill="#E8E8F6"/>
<path fill-rule="evenodd" clip-rule="evenodd" d="M29.998 34.2716C37.1242 29.5283 39.0742 19.9338 34.3536 12.8416C29.633 5.74937 20.0293 3.84516 12.9031 8.5884C5.77691 13.3316 3.82683 22.9262 8.54746 30.0184C13.2681 37.1106 22.8718 39.0148 29.998 34.2716ZM26.9137 30.0464C31.9752 26.8275 33.6061 20.3184 30.5565 15.5078C27.5068 10.6973 20.9314 9.40699 15.8699 12.6259C10.8083 15.8448 9.17741 22.354 12.2271 27.1645C15.2767 31.9751 21.8521 33.2653 26.9137 30.0464Z" fill="#E8E8F6"/>
</svg>
